<?xml version="1.0" encoding="utf-8"?>
<!-- Generator: Adobe Illustrator 25.2.0, SVG Export Plug-In . SVG Version: 6.00 Build 0)  -->
<svg version="1.1" id="Layer_1" xmlns="http://www.w3.org/2000/svg" xmlns:xlink="http://www.w3.org/1999/xlink" x="0px" y="0px"
	 viewBox="200 150 441.9 295.3" xml:space="preserve">
<style type="text/css">
	.st0{fill:#585857;}
	.st1{fill:#1F5DA5;}
	.st2{fill:#2EA2BC;}
</style>
<g>
	<g>
		<path class="st0" d="M439.6,338.9c-1.8,0-3.8-0.3-5.1-0.9v-20l2-0.1v6.8c0.8-0.5,2-0.9,3.3-0.9c4.1,0,6.9,2.5,6.9,7.3
			C446.7,335.9,444.1,338.9,439.6,338.9z M439.5,337.2c3.4,0,5.1-2.3,5.1-6.1c0-3.7-1.8-5.6-4.9-5.6c-1.3,0-2.5,0.5-3.2,1v10.1
			C437.3,337,438.2,337.2,439.5,337.2z"/>
		<path class="st0" d="M456.8,338.9c-4.5,0-7.4-2.7-7.4-7.6c0-4.4,2.5-7.5,6.6-7.5c3.8,0,5.8,2.8,5.8,6.3c0,0.6,0,1.2-0.1,1.7h-10.3
			c0.2,3.7,2.2,5.4,5.5,5.4c1.5,0,3-0.4,4.3-0.9l0.4,1.7C460.2,338.6,458.6,338.9,456.8,338.9z M451.4,330.3h8.4c0-0.2,0-0.3,0-0.5
			c0-2.2-1.1-4.3-3.9-4.3C453.3,325.5,451.7,327.4,451.4,330.3z"/>
		<path class="st0" d="M483.6,331c0,4.6-2.1,7.9-6.8,7.9c-1.5,0-2.5-0.3-3.3-0.7v5.7h-2v-18.7c1.8-0.9,3.8-1.3,5.4-1.3
			C481.4,323.8,483.6,326.8,483.6,331z M473.5,336.4c0.8,0.4,1.7,0.8,3.1,0.8c3.3,0,5-2.2,5-6.1c0-3-1.4-5.5-4.7-5.5
			c-1.3,0-2.5,0.3-3.3,0.8V336.4z"/>
		<path class="st0" d="M493.3,323.8c0.6,0,1.1,0.1,1.6,0.1l-0.3,1.7c-0.4-0.1-0.9-0.1-1.2-0.1c-1.7,0-3.1,0.4-4.1,1v12.1h-2v-13.3
			C488.8,324.4,491,323.8,493.3,323.8z"/>
		<path class="st0" d="M502.7,338.9c-4.1,0-6.5-3.1-6.5-7.6s2.4-7.6,6.5-7.6c4.2,0,6.5,3.1,6.5,7.6S506.9,338.9,502.7,338.9z
			 M502.7,337.2c3.1,0,4.5-2.3,4.5-5.8c0-3.5-1.4-5.8-4.5-5.8c-3,0-4.4,2.3-4.4,5.8C498.3,334.8,499.7,337.2,502.7,337.2z"/>
		<path class="st0" d="M513.2,325.8H511v-1.7h2.2v-1.6c0-3,1.2-4.9,4.2-4.9c0.9,0,1.7,0.2,2.3,0.3l-0.4,1.6
			c-0.5-0.1-1.1-0.2-1.7-0.2c-1.9,0-2.5,1.2-2.5,3.1v1.7h3.9v1.7h-3.9v12.8h-2V325.8z"/>
		<path class="st0" d="M527.8,338.9c-4.5,0-7.4-2.7-7.4-7.6c0-4.4,2.5-7.5,6.6-7.5c3.8,0,5.8,2.8,5.8,6.3c0,0.6,0,1.2-0.1,1.7h-10.3
			c0.2,3.7,2.2,5.4,5.5,5.4c1.5,0,3-0.4,4.3-0.9l0.4,1.7C531.2,338.6,529.6,338.9,527.8,338.9z M522.5,330.3h8.4c0-0.2,0-0.3,0-0.5
			c0-2.2-1.1-4.3-3.9-4.3C524.3,325.5,522.7,327.4,522.5,330.3z"/>
		<path class="st0" d="M544,326.2c-1.1-0.4-2.1-0.7-3.7-0.7c-1.8,0-3.1,0.6-3.1,2.3c0,1.7,1.4,2.1,3.2,2.7c3,0.9,4.8,1.9,4.8,4.3
			c0,2.8-2.3,4.1-5.3,4.1c-1.8,0-3.9-0.5-4.8-0.9l0.3-1.7c1.2,0.5,2.7,0.8,4.4,0.8c2,0,3.3-0.8,3.3-2.3c0-1.5-1.3-2-3.8-2.8
			c-2.3-0.7-4.2-1.7-4.2-4.2c0-2.6,1.8-4.1,5-4.1c1.6,0,3.1,0.3,4.1,0.7L544,326.2z"/>
		<path class="st0" d="M555.8,326.2c-1.1-0.4-2.1-0.7-3.7-0.7c-1.8,0-3.1,0.6-3.1,2.3c0,1.7,1.4,2.1,3.2,2.7c3,0.9,4.8,1.9,4.8,4.3
			c0,2.8-2.3,4.1-5.3,4.1c-1.8,0-3.9-0.5-4.8-0.9l0.3-1.7c1.2,0.5,2.7,0.8,4.4,0.8c2,0,3.3-0.8,3.3-2.3c0-1.5-1.3-2-3.8-2.8
			c-2.3-0.7-4.2-1.7-4.2-4.2c0-2.6,1.8-4.1,5-4.1c1.6,0,3.1,0.3,4.1,0.7L555.8,326.2z"/>
		<path class="st0" d="M559.8,319.7c0-0.7,0.5-1.3,1.3-1.3c0.9,0,1.3,0.6,1.3,1.3c0,0.8-0.5,1.4-1.3,1.4
			C560.2,321.1,559.8,320.5,559.8,319.7z M562.1,338.6h-2v-14.4h2V338.6z"/>
		<path class="st0" d="M572.3,338.9c-4.1,0-6.5-3.1-6.5-7.6s2.4-7.6,6.5-7.6c4.2,0,6.5,3.1,6.5,7.6S576.5,338.9,572.3,338.9z
			 M572.3,337.2c3.1,0,4.5-2.3,4.5-5.8c0-3.5-1.4-5.8-4.5-5.8c-3,0-4.4,2.3-4.4,5.8C567.8,334.8,569.3,337.2,572.3,337.2z"/>
		<path class="st0" d="M582.4,338.6v-13.3c1.7-0.9,3.8-1.5,6.1-1.5c3.9,0,5.7,2,5.7,5.3v9.5h-2v-9.4c0-2.2-1.1-3.6-3.7-3.6
			c-1.4,0-2.8,0.3-4.1,1v12.1H582.4z"/>
		<path class="st0" d="M602.9,338.9c-3.6,0-5.4-1.7-5.4-4.2c0-3.1,2.5-4.4,5.6-4.4c1.2,0,2.4,0.2,3.5,0.4V329c0-2.2-1.1-3.5-3.8-3.5
			c-1.4,0-2.8,0.3-3.9,0.7l-0.5-1.7c1.1-0.5,2.8-0.8,4.5-0.8c3.7,0,5.6,1.9,5.6,5.3v8.5C607.2,338.3,605.4,338.9,602.9,338.9z
			 M606.5,336.5v-4.4c-0.9-0.2-2-0.4-3.3-0.4c-2.1,0-3.8,0.7-3.8,2.9c0,1.8,1.3,2.7,3.6,2.7C604.8,337.3,605.9,336.9,606.5,336.5z"
			/>
		<path class="st0" d="M614.8,334.5c0,1.8,0.5,2.7,1.9,2.7c0.3,0,0.6-0.1,0.8-0.1l0.2,1.6c-0.4,0.1-0.9,0.2-1.3,0.2
			c-2.5,0-3.6-1.5-3.6-4.4V318l2-0.1V334.5z"/>
	</g>
	<path class="st1" d="M434.8,310.7v-20.5c0-7.7,6.3-14,14-14c7.7,0,14,6.3,14,14s-6.3,14-14,14c-2.9,0-5.7-0.9-8.1-2.6L440,301v9.7
		H434.8z M448.8,281.4c-4.9,0-8.8,4-8.8,8.8c0,4.9,4,8.8,8.8,8.8c4.9,0,8.8-4,8.8-8.8C457.6,285.3,453.7,281.4,448.8,281.4z
		 M493.4,310.7c-7.7,0-14-6.3-14-14s6.3-14,14-14c7.7,0,14,6.3,14,14S501.1,310.7,493.4,310.7z M493.4,287.9c-4.9,0-8.8,4-8.8,8.8
		c0,4.9,4,8.8,8.8,8.8c4.9,0,8.8-4,8.8-8.8C502.2,291.9,498.2,287.9,493.4,287.9z M354.8,310.7v-17.4c0-5.8-4.7-10.5-10.5-10.5
		c-2.9,0-5.6,1.2-7.6,3.3l-0.3,0.3L336,286c-2-2.1-4.7-3.3-7.6-3.3c-5.8,0-10.5,4.7-10.5,10.5v17.4h5.2v-17.4c0-3,2.4-5.4,5.4-5.4
		c3,0,5.4,2.4,5.4,5.4v17.4h5.2v-17.4c0-3,2.4-5.4,5.4-5.4c3,0,5.4,2.4,5.4,5.4v17.4H354.8z M380.9,310.7v-3.1l-0.7,0.5
		c-2.4,1.7-5.2,2.6-8.1,2.6c-7.7,0-14-6.3-14-14s6.3-14,14-14c2.9,0,5.7,0.9,8.1,2.6l0.7,0.5v-3.1h5.2v27.9H380.9z M372.1,287.9
		c-4.9,0-8.8,4-8.8,8.8c0,4.9,4,8.8,8.8,8.8c4.9,0,8.8-4,8.8-8.8C380.9,291.9,376.9,287.9,372.1,287.9z M538.1,300.2h-5.4
		c-1.4,3.2-4.6,5.3-8.1,5.3c-4.9,0-8.8-4-8.8-8.8s4-8.8,8.8-8.8c3.5,0,6.7,2.1,8.1,5.3h5.4c-1.6-6.1-7.2-10.5-13.5-10.5
		c-7.7,0-14,6.3-14,14s6.3,14,14,14C530.9,310.7,536.5,306.3,538.1,300.2z M470.4,310.7l0-14c0-4.7,3.7-8.6,8.4-8.8v-5.2
		c-7.5,0.2-13.5,6.4-13.5,14l0,14H470.4z M394.4,310.7l0-14c0-4.7,3.7-8.6,8.4-8.8v-5.2c-7.5,0.2-13.5,6.4-13.5,14l0,14H394.4z
		 M555.4,310.7c-7.7,0-14-6.3-14-14s6.3-14,14-14s14,6.3,14,14c0,0.6,0,1.3-0.1,1.9h-22.5l0.2,0.6c1.1,3.7,4.6,6.3,8.5,6.3
		c2.9,0,5.5-1.4,7.2-3.7h5.8C566.3,307.1,561.2,310.7,555.4,310.7z M555.4,287.9c-3.9,0-7.4,2.6-8.5,6.3l-0.2,0.6H564l-0.2-0.6
		C562.8,290.5,559.3,287.9,555.4,287.9z M582.9,310.7L582.9,310.7c2.1,0,3.9-0.4,5.5-1.2c2.2-1.1,3.8-2.9,4.5-4.9
		c0.8-2.5,0.1-5.3-1.7-7.1c-1.2-1.1-2.7-1.6-3.8-2l-7.7-2.5c-0.8-0.3-1.8-0.6-2.2-1c-0.4-0.3-0.6-0.9-0.5-1.5
		c0.1-0.6,0.4-1.2,0.9-1.7c0.8-0.7,2.2-1,4-1l0.3,0c1.5,0,2.7,0.3,3.7,0.7c1.3,0.6,2.2,1.8,2.3,3.1h5.2c0-0.1,0-0.2,0-0.2
		c-0.3-3.3-2.3-6.1-5.4-7.5c-1.6-0.7-3.5-1.1-5.7-1.2c-0.1,0-0.3,0-0.4,0c-3,0-5.5,0.7-7.3,2.2c-1.6,1.3-2.6,3.2-2.8,5.1
		c-0.2,2.1,0.6,4.3,2.1,5.7c1.3,1.2,3,1.8,4.2,2.2l7.7,2.5c0.9,0.3,1.6,0.5,1.9,0.9c0.4,0.4,0.5,1.1,0.3,1.7
		c-0.2,0.7-0.9,1.5-1.8,1.9c-0.9,0.4-2,0.6-3.3,0.6l-0.2,0c-1.2,0-3-0.3-4.3-1.2c-0.9-0.7-1.4-1.5-1.5-2.4l-5.2,0
		c0.1,2.6,1.4,5,3.7,6.6c1.9,1.4,4.4,2.1,7.2,2.2L582.9,310.7z M607.6,310.7c2.1,0,3.9-0.4,5.5-1.2c2.2-1.1,3.8-2.9,4.5-4.9
		c0.8-2.5,0.1-5.3-1.7-7.1c-1.2-1.1-2.7-1.6-3.8-2l-7.7-2.5c-0.8-0.3-1.8-0.6-2.2-1c-0.4-0.3-0.6-0.9-0.5-1.5
		c0.1-0.6,0.4-1.2,0.9-1.7c0.8-0.7,2.2-1,4-1l0.3,0c1.5,0,2.7,0.3,3.7,0.7c1.3,0.6,2.2,1.8,2.3,3.1h5.2c0-0.1,0-0.2,0-0.2
		c-0.3-3.3-2.3-6.1-5.4-7.5c-1.6-0.7-3.5-1.1-5.7-1.2c-0.1,0-0.3,0-0.4,0c-3.1,0-5.5,0.7-7.3,2.2c-1.6,1.3-2.6,3.2-2.8,5.1
		c-0.2,2.1,0.6,4.3,2.1,5.7c1.3,1.2,3,1.8,4.2,2.2l7.7,2.5c0.9,0.3,1.6,0.5,1.9,0.9c0.4,0.4,0.5,1.1,0.3,1.7
		c-0.2,0.7-0.9,1.5-1.8,1.9c-0.9,0.4-2,0.6-3.3,0.6l-0.2,0c-1.2,0-3-0.3-4.3-1.2c-0.9-0.7-1.4-1.5-1.5-2.4l-5.2,0
		c0.1,2.6,1.4,5,3.7,6.6c1.9,1.4,4.4,2.1,7.2,2.2L607.6,310.7z M302,310.7c2.6,0,4.8-0.5,6.8-1.4c2.6-1.3,4.5-3.4,5.3-5.9
		c1-3,0.2-6.3-2-8.3c-1.4-1.4-3.2-1.9-4.7-2.4l-9.9-3.3c-1.2-0.4-2.4-0.8-3.2-1.5c-0.6-0.6-1-1.6-0.9-2.5c0.1-1,0.6-2,1.5-2.6
		c1.2-1,3.1-1.5,5.6-1.5c0.1,0,0.3,0,0.4,0c2.1,0,3.7,0.3,5,0.9c1.9,0.9,3.3,2.8,3.5,4.8h5.2c0-0.1,0-0.2,0-0.4
		c-0.3-3.9-2.8-7.4-6.5-9.1c-2-0.9-4.3-1.4-7.1-1.4c-0.2,0-0.3,0-0.5,0c-3.8,0-6.7,0.9-8.9,2.7c-1.9,1.6-3.1,3.8-3.3,6.1
		c-0.2,2.5,0.7,5.1,2.5,6.8c1.6,1.5,3.5,2.1,5.1,2.6l9.9,3.3c1,0.3,2.1,0.7,2.7,1.3c0.7,0.6,0.9,1.9,0.6,2.9
		c-0.4,1.1-1.4,2.2-2.7,2.9c-1.2,0.6-2.7,0.9-4.5,0.9c0,0-0.2,0-0.3,0c-1.7,0-4.1-0.4-6-1.7c-1.4-1-2.2-2.3-2.3-3.8l-5.2,0
		c0.1,3.2,1.7,6.1,4.4,8c2.3,1.7,5.4,2.6,8.9,2.7C301.8,310.7,301.9,310.7,302,310.7z M427.1,300.6h-5.2c-0.2,2.8-2.5,4.9-5.4,4.9
		c-3,0-5.4-2.4-5.4-5.4v-12.3h9.2v-5.2h-9.2v-6.5H406v24c0,5.8,4.7,10.5,10.5,10.5C422.2,310.7,426.8,306.2,427.1,300.6z"/>
	<path class="st2" d="M241.7,335.4c-4.4,0-8.7-0.9-12.7-2.6c-9.1-3.8-16-11.5-19.3-21.7c-3.3-10.2-2.7-21.6,1.7-32.2
		c7-16.5,22.3-27.6,38.1-27.6c4.4,0,8.7,0.9,12.7,2.6c5.8,2.4,10.7,6.5,14.4,11.7c-2.9-3.3-6.5-5.8-10.6-7.6
		c-3.6-1.5-7.4-2.3-11.3-2.3c-14,0-27.6,9.8-33.7,24.4c-4.3,10.1-4.5,21.3-0.7,30.7c3.2,7.8,9,13.9,16.3,17
		c3.6,1.5,7.4,2.3,11.3,2.3c9.8,0,19.5-4.8,26.4-12.8C266.5,328.5,254.3,335.4,241.7,335.4C241.7,335.4,241.7,335.4,241.7,335.4z"/>
	<path class="st1" d="M248.5,325c-3.4,0-6.6-0.7-9.7-1.9c-3.3-1.4-6.3-3.5-8.7-6.1c1.5,1.2,3.1,2.1,4.9,2.9c2.7,1.1,5.5,1.7,8.4,1.7
		c10.4,0,20.5-7.3,25.1-18.1c6-14.3,0.8-30.2-11.7-35.5c-2.7-1.1-5.5-1.7-8.4-1.7c-7.2,0-14.2,3.5-19.4,9.2
		c6.1-8.9,15.7-14.5,25.5-14.5c3.4,0,6.6,0.7,9.7,1.9c7,2.9,12.2,8.8,14.7,16.6c2.5,7.8,2.1,16.5-1.3,24.5
		C272.3,316.5,260.6,325,248.5,325z"/>
	<g>
		<path class="st1" d="M629.1,284.3c-0.2-0.2-0.5-0.5-0.8-0.6c0.7-0.1,1.2-0.3,1.5-0.7c0.3-0.4,0.5-0.9,0.5-1.4
			c0-0.5-0.1-0.9-0.3-1.2c-0.2-0.4-0.5-0.6-0.9-0.7c-0.4-0.1-1-0.2-1.8-0.2H624v7.8h1.6v-3.2h0.3c0.4,0,0.6,0,0.8,0.1
			c0.2,0.1,0.3,0.2,0.5,0.3c0.1,0.2,0.4,0.5,0.8,1.1l1.1,1.7h1.9l-0.9-1.5C629.6,285,629.3,284.6,629.1,284.3z M626.7,282.6h-1.2v-2
			h1.2c0.6,0,1,0,1.1,0c0.3,0,0.5,0.1,0.6,0.3c0.1,0.2,0.2,0.4,0.2,0.6c0,0.2-0.1,0.4-0.2,0.6c-0.1,0.2-0.3,0.3-0.4,0.3
			C627.9,282.6,627.5,282.6,626.7,282.6z"/>
		<path class="st1" d="M632.2,278.2c-1.3-1.3-3.1-2.1-5-2.1c-2,0-3.7,0.8-5,2.1c-1.3,1.3-2.1,3.1-2.1,5c0,2,0.8,3.7,2.1,5
			c1.3,1.3,3.1,2.1,5,2.1c2,0,3.7-0.8,5-2.1c1.3-1.3,2.1-3.1,2.1-5C634.3,281.3,633.5,279.5,632.2,278.2z M631.5,287.6
			c-1.1,1.1-2.6,1.8-4.3,1.8c-1.7,0-3.2-0.7-4.3-1.8c-1.1-1.1-1.8-2.6-1.8-4.3c0-1.7,0.7-3.2,1.8-4.3c1.1-1.1,2.6-1.8,4.3-1.8
			c1.7,0,3.2,0.7,4.3,1.8c1.1,1.1,1.8,2.7,1.8,4.3C633.3,284.9,632.6,286.5,631.5,287.6z"/>
	</g>
</g>
<g>
	<g>
		<path class="st2" d="M1444.2,326.8c-4.4,0-8.6-0.8-12.6-2.5c-9-3.8-15.8-11.4-19.1-21.4c-3.3-10.1-2.7-21.3,1.7-31.8
			c6.9-16.3,22-27.3,37.6-27.3c4.4,0,8.6,0.8,12.6,2.5c5.7,2.4,10.6,6.4,14.2,11.6c-2.9-3.2-6.4-5.8-10.4-7.5
			c-3.5-1.5-7.3-2.2-11.2-2.2c-13.9,0-27.2,9.7-33.3,24.1c-4.2,10-4.4,21-0.7,30.3c3.2,7.8,8.9,13.7,16.1,16.8
			c3.5,1.5,7.3,2.2,11.2,2.2c9.7,0,19.2-4.8,26.1-12.6C1468.7,319.9,1456.6,326.8,1444.2,326.8
			C1444.3,326.8,1444.2,326.8,1444.2,326.8z"/>
		<path class="st1" d="M1450.9,316.5c-3.3,0-6.5-0.6-9.6-1.9c-3.3-1.4-6.2-3.4-8.6-6.1c1.5,1.1,3.1,2.1,4.8,2.8
			c2.6,1.1,5.4,1.7,8.3,1.7c10.3,0,20.2-7.2,24.8-17.9c5.9-14.1,0.7-29.8-11.6-35c-2.6-1.1-5.4-1.7-8.3-1.7
			c-7.1,0-14.1,3.4-19.2,9.1c6-8.8,15.5-14.4,25.2-14.4c3.3,0,6.5,0.6,9.6,1.9c6.9,2.9,12,8.7,14.5,16.4c2.5,7.7,2.1,16.3-1.3,24.3
			C1474.4,308.1,1462.9,316.5,1450.9,316.5z"/>
	</g>
	<g>
		<path class="st0" d="M1073.4,336.8c0-1.7,0.5-3.5,1.2-5l1.2,0.5c-0.6,1.4-0.9,3-0.9,4.1c0,2.6,1.4,4.2,4.9,4.2
			c3,0,5.4-1.3,5.8-3.4c-1.4-1.2-3.5-2-5.7-3c0-0.2,0-0.5,0-0.7c0-4.3,2.6-5.8,5.2-5.8c1.1,0,2.1,0.4,2.8,0.9l-0.6,1.4
			c-0.7-0.5-1.6-0.7-2.4-0.7c-1.6,0-3.4,0.6-3.7,3.9c2.5,1,4.4,1.9,5.9,3.2c0,3.7-2.9,5.8-7.4,5.8
			C1075.4,342.2,1073.4,340.1,1073.4,336.8z"/>
		<path class="st0" d="M1089.8,337.5v-15.4l1.4-0.1v15.6H1089.8z"/>
		<path class="st0" d="M1103.3,337.5c-1.9,0-2.8-0.6-3.2-1.8c-0.9,0.1-1.7,0.2-2.4,0.2c-2.7,0-4.5-0.8-4.5-2.6
			c0-3.4,3.7-5.7,7.9-5.7v6.2c0,1.5,0.6,2.2,2.6,2.2h0.3v1.6H1103.3z M1099.8,334.4c0-0.2,0-0.3,0-0.5v-4.8
			c-3.4,0.2-5.3,2.3-5.3,3.8c0,0.9,1.1,1.5,3.4,1.5C1098.4,334.5,1099.1,334.5,1099.8,334.4z"/>
		<path class="st0" d="M1103.4,336.7c0-0.5,0.2-0.8,0.5-0.8h0h0.4c2.9,0,5.9-0.2,8-0.9c0.1-0.6,0.2-1.3,0.2-1.9
			c-0.8,0.3-1.8,0.4-3,0.4c-2.9,0-3.8-1.5-3.8-3.4c0-2.6,1.7-4.7,3.9-4.7c2.5,0,4.2,2.5,4.2,6.8c0,1.3-0.2,2.8-0.5,4
			c-1.8,1-5.1,1.4-8.8,1.4h-0.6C1103.6,337.5,1103.4,337.2,1103.4,336.7z M1112.6,331.9c-0.2-3.1-1.2-5.2-3-5.2s-2.6,1.8-2.6,3.1
			c0,1.4,0.7,2.4,3.1,2.4C1110.8,332.2,1111.8,332.1,1112.6,331.9z M1110.7,322.3l-1.1,1.2l-1.3-1.1l1.1-1.2L1110.7,322.3z"/>
		<path class="st0" d="M1114.9,342.2l0.2-1.4c0.4,0.1,0.8,0.1,1.2,0.1c3.2,0,4.5-2.7,4.5-5.4c0-1.1-0.3-2.8-0.9-4.9l1.4-0.4
			c0.3,1.5,0.5,2.3,0.9,3.5c0.5,1.6,1.7,2.3,3.3,2.3h0.6v1.6h-0.8c-1.5,0-2.5-0.5-3.2-1.4c-0.2,4-2.4,6.2-5.5,6.2
			C1116,342.3,1115.5,342.3,1114.9,342.2z"/>
		<path class="st0" d="M1125.5,336.7c0-0.5,0.2-0.8,0.5-0.8h0.4c5.2,0,8.9-1.2,11.4-2c-2.8-1.6-4.9-3.4-7-3.4
			c-0.7,0-1.2,0.3-1.7,1.3l-1.1-0.4c0.7-1.7,1.5-2.3,2.9-2.3c2.8,0,5.4,2.6,8.9,4.5l-0.3,1.3c-2.8,0.6-6.5,2.7-13.1,2.7h-0.3
			C1125.7,337.5,1125.5,337.2,1125.5,336.7z"/>
		<path class="st0" d="M1144.5,333.4c0-1.3,0.3-2.6,0.8-3.9l1.3,0.3c-0.3,1.2-0.5,2.3-0.5,3.2c0,1.8,0.8,3.2,5.9,3.2
			c3.3,0,5.7-0.6,7.4-1.4c0-0.3,0-0.5,0-0.8c0-1.4-0.3-2.9-0.6-4.4l1.4-0.3c0.3,1.2,0.6,2.8,0.6,4.2c0,0.9-0.1,1.7-0.3,2.4
			c-1.7,1.1-4.9,1.8-8.8,1.8C1145.7,337.7,1144.5,335.9,1144.5,333.4z M1153.5,341l-1.1,1.2l-1.3-1.1l1.1-1.2L1153.5,341z"/>
		<path class="st0" d="M1168.3,337.5h-0.6c-3.4,0-4.3-2-4.3-5.2v-10.2l1.4-0.1V332c0,2.9,0.9,3.9,3.2,3.9h0.3V337.5z"/>
		<path class="st0" d="M1167.8,336.7c0-0.5,0.2-0.8,0.5-0.8h0.5c4.2,0,7.5-0.4,10.4-1.1c-3.1-2.8-5.2-4.5-6.5-4.5
			c-0.8,0-1.2,0.3-1.7,1.2l-1.1-0.4c0.7-1.7,1.6-2.2,2.9-2.2c2,0,4.5,2.3,7.5,5c2,1.8,2.8,2,4.6,2h0.3v1.6h-0.5
			c-1.9,0-2.9-0.4-4.3-1.6c-3.6,1-7.5,1.6-11.9,1.6h-0.3C1168,337.5,1167.8,337.2,1167.8,336.7z M1175.6,326.4l-1.1,1.2l-1.3-1.1
			l1.1-1.2L1175.6,326.4z"/>
		<path class="st0" d="M1184.7,336.7c0-0.5,0.2-0.8,0.5-0.8h0.3c3.5,0,3.9-1.3,3.9-2.9v-2.8l1.4-0.1v2.8c0,0.9-0.1,1.6-0.3,2.3
			c0.8,0.4,1.8,0.8,3.6,0.8h0.2v1.6h-0.3c-2.1,0-3.3-0.5-4.3-1.2c-0.8,0.8-2,1.2-4.1,1.2h-0.4
			C1184.9,337.5,1184.7,337.2,1184.7,336.7z M1187.7,327.3l-1,1.1l-1.2-1l1-1.2L1187.7,327.3z M1190.6,327.2l-1,1.1l-1.2-1l1-1.2
			L1190.6,327.2z"/>
		<path class="st0" d="M1193.8,336.7c0-0.5,0.2-0.8,0.5-0.8h0.1c1.7,0,2.9-0.2,3.8-0.7c0-0.3,0-0.6,0-0.9c0-1.5-0.2-3.1-0.6-4.4
			l1.3-0.3c0.3,1.2,0.6,2.8,0.6,4.2c0,0.9-0.1,1.8-0.3,2.5c-1,0.6-2.7,1.2-4.9,1.2h-0.1C1194,337.5,1193.8,337.2,1193.8,336.7z
			 M1197.3,327.1l-1.1,1.2l-1.3-1.1l1.1-1.2L1197.3,327.1z"/>
		<path class="st0" d="M1202.1,337.5v-15.4l1.4-0.1v15.6H1202.1z"/>
		<path class="st0" d="M1225,336.2c-2,0.9-5.1,1.5-8.5,1.5c-6,0-7.3-1.9-7.3-4.4c0-1.3,0.3-2.6,0.8-3.9l1.3,0.3
			c-0.3,1.2-0.6,2.2-0.6,3.1c0,1.9,0.9,3.3,6,3.3c3.2,0,5.7-0.5,7.3-1.2l0-0.1c-1.1-1.7-2.7-4-6.9-6.3v-1.8c2.5-2,5.3-3.5,8.9-4.6
			v1.5c-3.1,0.9-5.7,2.4-7.6,3.9c4.1,2.4,5.5,4.7,6.7,6.3c0.9,1.3,1.4,2.1,3.2,2.1h0.3v1.6h-0.4C1226.6,337.5,1225.7,337,1225,336.2
			z"/>
		<path class="st0" d="M1230.3,340.9l-1,1.1l-1.2-1l1-1.2L1230.3,340.9z M1228.2,336.7c0-0.5,0.2-0.8,0.5-0.8h0.1
			c1.7,0,2.9-0.2,3.8-0.7c0-0.3,0-0.6,0-0.9c0-1.5-0.2-3.1-0.6-4.4l1.3-0.3c0.3,1.2,0.6,2.8,0.6,4.2c0,0.9-0.1,1.8-0.3,2.5
			c-1,0.6-2.7,1.2-4.9,1.2h-0.1C1228.4,337.5,1228.2,337.2,1228.2,336.7z M1233.2,340.8l-1,1.1l-1.2-1l1-1.2L1233.2,340.8z"/>
	</g>
	<g>
		<polygon class="st1" points="1296.9,259.1 1289.7,259.1 1289.7,263.3 1276.2,263.3 1276.2,266.2 1296.9,266.2 		"/>
		<path class="st1" d="M1309.9,290.6l0.4-0.5v-16.3h-7.2v16.6h-1.9c-2,0-4.3-1.6-4.3-3.6v-13h-7.3v16.6h-2.7c-2,0-3.6-1.6-3.6-3.6
			v-13h-7.2v30.3h-19c-2.3,0-4.2-1.5-5-3.5h-7.5c0.9,6.1,6.1,10.7,12.5,10.7h26.2v-13.7h6.4v0h13.6L1309.9,290.6z"/>
		<rect x="1329.2" y="259.1" class="st1" width="7.3" height="38.6"/>
		<path class="st1" d="M1365.9,285.1v-7.5l-18.4-7.7l-0.5,0.5l-4.8,5.1l16.4,6.9v2.7c0,3-2.4,5.4-5.4,5.4h-11v7.3h11
			C1360.2,297.7,1365.9,292.1,1365.9,285.1z"/>
		<rect x="1316.1" y="259.1" class="st1" width="7.3" height="7.3"/>
		<path class="st1" d="M1316.1,298.8c0,2.9-2.4,5.4-5.4,5.4h-11v7.2h11c7,0,12.6-5.7,12.6-12.6v-25h-7.2V298.8z"/>
		<polygon class="st1" points="1382.2,307.3 1393,307.3 1393,311.5 1400.2,311.5 1400.2,304.4 1382.2,304.4 		"/>
		<path class="st1" d="M1393,273.8v16.6h-10.4c-2,0-3.6-1.6-3.6-3.6v-13h-7.2v25c0,2.9-2.4,5.4-5.4,5.4h-11v7.2h11
			c7,0,12.6-5.6,12.6-12.6v-1.1h14.3l6.6-7.1l0.4-0.5v-16.3H1393z"/>
		<polygon class="st1" points="1169.6,266.2 1148.9,266.2 1148.9,263.3 1162.4,263.3 1162.4,259.1 1169.6,259.1 		"/>
		<path class="st1" d="M1175.9,290.5h-2.6c-2,0-3.6-1.6-3.6-3.6v-13h-7.3v16.6h-2.7c-2,0-3.6-1.6-3.6-3.6v-13h-7.2v16.6h-2.9
			c-2,0-3.6-1.6-3.6-3.6v-13h-15.4l-6.7,7.2h14.9v9.4h-1.3v0h-4.6c-2.9,0-5.3-2.5-5.3-5.4v-4l-5.7,6.1h-0.1l-0.2,0.3l-0.4,0.4
			l-0.1,0.1l-0.2,0.3c0.2,0.5,0.4,1.8,0.6,2.3h-6.9v-16.6h-7.2v16.6h-2.2c-2.9,0-5.4-2.4-5.4-5.4v-7.6l-18.4-7.7l-5.3,5.7l16.4,6.9
			v2.7c0,3-2.4,5.4-5.4,5.4h-11v7.3h11c3.5,0,6.7-1.5,9-3.8c2.3,2.4,5.5,3.8,9,3.8h40.8v0h33.7l6.6-7.1l0.4-0.5v-16.3h-7.2V290.5z"
			/>
		<rect x="1103.6" y="259.1" class="st1" width="7.3" height="7.3"/>
		<path class="st1" d="M1269.8,297.7h-48.9v1.1c0,7-5.7,12.6-12.6,12.6H1190v-7.3h18.3c3,0,5.4-2.4,5.4-5.3v-1.1h-12.8
			c-5.6,0-10.4-4.4-12-9.5l0.1-0.1l0.6-0.7l6-6.4v3.3c0,2.9,2.4,6.1,5.4,6.1h12.8v-4c0-2.9-2.4-5.4-5.4-5.4h-12.8h-3.7l6.7-7.2h9.8
			c7,0,12.6,5.7,12.6,12.6v4h6.5c-0.2-0.5-0.4-1.8-0.6-2.3l0.2-0.3l0.1-0.1l0.4-0.4l0.3-0.3h0l5.7-6.1v3.3c0,2.9,2.4,6.1,5.3,6.1
			h5.9v-9.4h-11.2h-3.7l6.7-7.2h20.6c7,0,12.6,5.7,12.6,12.6V297.7z M1262.5,286.5c0-2.9-2.4-5.4-5.4-5.4h-5.2v9.4h10.6V286.5z"/>
		<rect x="1175.9" y="263.3" class="st2" width="93.9" height="2.9"/>
		<rect x="1072.5" y="304.2" class="st2" width="110.7" height="2.9"/>
	</g>
</g>
</svg>
